<svg width="16" height="14" viewBox="0 0 16 14" fill="none" xmlns="http://www.w3.org/2000/svg">
<path fill-rule="evenodd" clip-rule="evenodd" d="M9.42146 0.292893C9.03094 -0.0976311 8.39777 -0.0976311 8.00725 0.292893C7.61672 0.683417 7.61672 1.31658 8.00725 1.70711L12.3001 6H1C0.447715 6 0 6.44772 0 7C0 7.55228 0.447715 8 1 8H12.3001L8.00725 12.2929C7.61672 12.6834 7.61672 13.3166 8.00725 13.7071C8.39777 14.0976 9.03094 14.0976 9.42146 13.7071L15.4215 7.70711C15.579 7.54954 15.673 7.35248 15.7034 7.14779C15.718 7.04985 15.718 6.95015 15.7034 6.85221C15.6963 6.80426 15.6858 6.75742 15.6722 6.71195C15.6262 6.55857 15.5426 6.41405 15.4215 6.29289L9.42146 0.292893Z" fill="black"/>
</svg>
