<svg width="79" height="99" viewBox="0 0 79 99" fill="none" xmlns="http://www.w3.org/2000/svg">
<path d="M4.44463 9.80493L50.4446 2.41208C52.5719 2.07019 54.5 3.71315 54.5 5.86773V86.2017C54.5 87.9318 53.2358 89.4024 51.5252 89.662L5.52524 96.6442C3.40724 96.9656 1.5 95.3261 1.5 93.1838V13.2606C1.5 11.542 2.74779 10.0776 4.44463 9.80493Z" fill="white" stroke="black" stroke-width="3"/>
<path d="M10.4684 15.4392L43.4684 10.3677C45.5883 10.0419 47.5 11.6822 47.5 13.8271V79.5543C47.5 81.2638 46.2651 82.7231 44.5792 83.006L11.5792 88.5429C9.44466 88.9011 7.5 87.2555 7.5 85.0912V18.8986C7.5 17.1709 8.76069 15.7017 10.4684 15.4392Z" fill="black" stroke="black" stroke-width="3"/>
<path d="M55.196 2.93413L76.196 5.70147C76.9422 5.79981 77.5 6.43594 77.5 7.18861V89.7044C77.5 90.5883 76.7395 91.2806 75.8594 91.1978L54.8594 89.2211C54.0889 89.1486 53.5 88.5017 53.5 87.7277V4.42128C53.5 3.51501 54.2975 2.81573 55.196 2.93413Z" fill="white" stroke="black" stroke-width="3"/>
</svg>
