<svg width="23" height="48" viewBox="0 0 23 48" fill="none" xmlns="http://www.w3.org/2000/svg">
<circle r="11.2777" transform="matrix(-1 0 0 1 11.2776 11.2777)" fill="white"/>
<path d="M11.2778 33.833L1.51103 16.9165H21.0445L11.2778 33.833Z" fill="white"/>
<path fill-rule="evenodd" clip-rule="evenodd" d="M11.2777 47.1611C9.0128 47.1611 7.17673 45.325 7.17673 43.0601C7.17673 40.7952 9.0128 38.9592 11.2777 38.9592C13.5426 38.9592 15.3787 40.7952 15.3787 43.0601C15.3787 45.325 13.5426 47.1611 11.2777 47.1611ZM11.2777 45.1106C10.1452 45.1106 9.2272 44.1926 9.2272 43.0601C9.2272 41.9277 10.1452 41.0096 11.2777 41.0096C12.4101 41.0096 13.3282 41.9277 13.3282 43.0601C13.3282 44.1926 12.4101 45.1106 11.2777 45.1106Z" fill="white"/>
<circle r="5.12621" transform="matrix(-1 0 0 1 11.2777 11.2777)" fill="black"/>
</svg>
