<svg width="33" height="40" viewBox="0 0 33 40" fill="none" xmlns="http://www.w3.org/2000/svg">
<mask id="path-1-inside-1_2:24" fill="white">
<path fill-rule="evenodd" clip-rule="evenodd" d="M16.9 17.8977C12.2608 17.8977 8.49998 13.9578 8.49998 9.09768C8.49998 4.23756 12.2608 0.297653 16.9 0.297653C21.5392 0.297653 25.3 4.23756 25.3 9.09768C25.3 13.9578 21.5392 17.8977 16.9 17.8977ZM13.1865 18.9977C15.6716 18.9977 16.9142 20.9151 16.9142 20.9151C16.9142 20.9151 18.5709 18.9977 20.6418 18.9977C22.7128 18.9977 33 39.8978 33 39.8978H16.5H-8.01086e-05C-8.01086e-05 39.8978 10.7013 18.9977 13.1865 18.9977Z"/>
</mask>
<path fill-rule="evenodd" clip-rule="evenodd" d="M16.9 17.8977C12.2608 17.8977 8.49998 13.9578 8.49998 9.09768C8.49998 4.23756 12.2608 0.297653 16.9 0.297653C21.5392 0.297653 25.3 4.23756 25.3 9.09768C25.3 13.9578 21.5392 17.8977 16.9 17.8977ZM13.1865 18.9977C15.6716 18.9977 16.9142 20.9151 16.9142 20.9151C16.9142 20.9151 18.5709 18.9977 20.6418 18.9977C22.7128 18.9977 33 39.8978 33 39.8978H16.5H-8.01086e-05C-8.01086e-05 39.8978 10.7013 18.9977 13.1865 18.9977Z" fill="white"/>
<path d="M16.9142 20.9151L17.6708 21.5689L16.7996 22.5772L16.075 21.459L16.9142 20.9151ZM33 39.8978L33.8972 39.4561L34.6068 40.8978H33V39.8978ZM-8.01086e-05 39.8978V40.8978H-1.63557L-0.890184 39.442L-8.01086e-05 39.8978ZM9.49998 9.09768C9.49998 13.4499 12.8564 16.8977 16.9 16.8977V18.8977C11.6652 18.8977 7.49998 14.4657 7.49998 9.09768H9.49998ZM16.9 1.29765C12.8564 1.29765 9.49998 4.74549 9.49998 9.09768H7.49998C7.49998 3.72962 11.6652 -0.702347 16.9 -0.702347V1.29765ZM24.3 9.09768C24.3 4.74549 20.9436 1.29765 16.9 1.29765V-0.702347C22.1348 -0.702347 26.3 3.72962 26.3 9.09768H24.3ZM16.9 16.8977C20.9436 16.8977 24.3 13.4499 24.3 9.09768H26.3C26.3 14.4657 22.1348 18.8977 16.9 18.8977V16.8977ZM16.9142 20.9151C16.075 21.459 16.0752 21.4593 16.0754 21.4597C16.0755 21.4598 16.0757 21.4602 16.0759 21.4604C16.0762 21.4608 16.0764 21.4612 16.0767 21.4616C16.0772 21.4624 16.0776 21.4631 16.078 21.4636C16.0787 21.4647 16.0792 21.4654 16.0793 21.4656C16.0797 21.4661 16.0789 21.465 16.077 21.4622C16.0732 21.4567 16.0649 21.445 16.0523 21.4279C16.0269 21.3937 15.9843 21.3385 15.9245 21.2693C15.8042 21.1301 15.6192 20.9394 15.3714 20.7481C14.8784 20.3678 14.1554 19.9977 13.1865 19.9977V17.9977C14.7026 17.9977 15.8435 18.5864 16.5931 19.1647C16.9666 19.4528 17.2475 19.7415 17.4378 19.9617C17.5334 20.0723 17.6072 20.167 17.6595 20.2376C17.6857 20.2729 17.7066 20.3024 17.7222 20.325C17.73 20.3363 17.7365 20.3459 17.7417 20.3536C17.7443 20.3575 17.7466 20.3609 17.7485 20.3639C17.7495 20.3654 17.7504 20.3667 17.7512 20.368C17.7516 20.3686 17.752 20.3692 17.7523 20.3697C17.7525 20.37 17.7528 20.3704 17.7529 20.3705C17.7531 20.3709 17.7534 20.3713 16.9142 20.9151ZM20.6418 19.9977C19.905 19.9977 19.1782 20.346 18.5815 20.771C18.2929 20.9765 18.0583 21.1833 17.8971 21.3377C17.817 21.4144 17.7563 21.4769 17.7176 21.5181C17.6982 21.5387 17.6845 21.5538 17.6765 21.5626C17.6726 21.567 17.6701 21.5698 17.6691 21.5709C17.6687 21.5714 17.6686 21.5716 17.6688 21.5712C17.669 21.5711 17.6692 21.5708 17.6695 21.5704C17.6697 21.5702 17.6699 21.57 17.6701 21.5698C17.6702 21.5696 17.6704 21.5694 17.6704 21.5694C17.6706 21.5692 17.6708 21.5689 16.9142 20.9151C16.1575 20.2613 16.1577 20.2611 16.1579 20.2609C16.158 20.2608 16.1582 20.2605 16.1584 20.2603C16.1587 20.26 16.159 20.2596 16.1594 20.2592C16.1601 20.2583 16.161 20.2573 16.1619 20.2563C16.1638 20.2541 16.1661 20.2515 16.1688 20.2484C16.1742 20.2422 16.1813 20.2343 16.19 20.2246C16.2074 20.2053 16.2312 20.1793 16.2612 20.1474C16.3211 20.0837 16.4061 19.9964 16.5137 19.8934C16.7278 19.6883 17.0368 19.4157 17.4213 19.1419C18.1707 18.6082 19.3077 17.9977 20.6418 17.9977V19.9977ZM33 39.8978C32.1028 40.3394 32.1028 40.3393 32.1027 40.3392C32.1026 40.339 32.1025 40.3388 32.1024 40.3386C32.1021 40.338 32.1017 40.3371 32.1011 40.3358C32.0999 40.3334 32.098 40.3297 32.0956 40.3248C32.0908 40.3149 32.0835 40.3001 32.0738 40.2806C32.0545 40.2414 32.0257 40.1831 31.9879 40.107C31.9125 39.9548 31.8014 39.7312 31.6592 39.4464C31.3749 38.8768 30.9661 38.0627 30.469 37.0855C29.4744 35.1306 28.128 32.5263 26.7183 29.9241C25.3061 27.3174 23.84 24.7307 22.6045 22.8029C21.9844 21.8352 21.4397 21.0609 21.0014 20.5385C20.7802 20.2749 20.6106 20.1051 20.4927 20.0097C20.3308 19.8786 20.4036 19.9977 20.6418 19.9977V17.9977C21.1389 17.9977 21.5347 18.28 21.7511 18.4552C22.0115 18.6659 22.2752 18.9451 22.5335 19.253C23.0542 19.8735 23.6529 20.7321 24.2884 21.7238C25.5643 23.7147 27.0583 26.353 28.4768 28.9714C29.8977 31.5941 31.2525 34.2149 32.2516 36.1787C32.7513 37.1609 33.1623 37.9796 33.4486 38.553C33.5918 38.8397 33.7037 39.0651 33.78 39.219C33.8181 39.296 33.8473 39.3551 33.8671 39.395C33.8769 39.415 33.8844 39.4302 33.8895 39.4404C33.892 39.4455 33.8939 39.4494 33.8952 39.452C33.8958 39.4534 33.8963 39.4544 33.8967 39.455C33.8968 39.4554 33.897 39.4557 33.8971 39.4558C33.8971 39.456 33.8972 39.4561 33 39.8978ZM16.5 38.8978H33V40.8978H16.5V38.8978ZM-8.01086e-05 38.8978H16.5V40.8978H-8.01086e-05V38.8978ZM13.1865 19.9977C13.3493 19.9977 13.3744 19.9291 13.209 20.0469C13.0718 20.1446 12.8817 20.3149 12.6393 20.5761C12.1573 21.0953 11.5672 21.8659 10.9006 22.8315C9.57241 24.7553 8.01849 27.3384 6.5295 29.9439C5.04327 32.5446 3.63308 35.1475 2.59375 37.1017C2.07429 38.0784 1.64795 38.8921 1.35163 39.4614C1.20348 39.746 1.08786 39.9695 1.00938 40.1216C0.970141 40.1976 0.94019 40.2558 0.920105 40.2949C0.910062 40.3144 0.902486 40.3292 0.897448 40.339C0.894929 40.3439 0.893045 40.3476 0.891805 40.35C0.891184 40.3512 0.890725 40.3521 0.890428 40.3527C0.890279 40.353 0.890178 40.3532 0.890104 40.3534C0.890043 40.3535 0.890023 40.3535 -8.01086e-05 39.8978C-0.890184 39.442 -0.890122 39.4419 -0.890019 39.4417C-0.889931 39.4415 -0.889787 39.4412 -0.889611 39.4409C-0.889257 39.4402 -0.888741 39.4392 -0.888064 39.4379C-0.88671 39.4352 -0.884711 39.4313 -0.882077 39.4262C-0.876808 39.4159 -0.868997 39.4007 -0.858716 39.3807C-0.838154 39.3407 -0.80771 39.2815 -0.767962 39.2045C-0.688467 39.0504 -0.571748 38.8249 -0.422427 38.538C-0.123802 37.9643 0.305318 37.1452 0.82795 36.1626C1.87279 34.198 3.29328 31.5759 4.79305 28.9516C6.29006 26.332 7.87745 23.6901 9.25473 21.6952C9.94083 20.7014 10.5945 19.8392 11.1734 19.2154C11.4615 18.9051 11.7561 18.6263 12.0487 18.4179C12.313 18.2296 12.713 17.9977 13.1865 17.9977V19.9977Z" fill="white" mask="url(#path-1-inside-1_2:24)"/>
</svg>
