<svg width="49" height="28" viewBox="0 0 49 28" fill="none" xmlns="http://www.w3.org/2000/svg">
<path fill-rule="evenodd" clip-rule="evenodd" d="M0 0.999999C0 0.447715 0.447715 0 1 0H47.4242C47.9765 0 48.4242 0.447715 48.4242 1V4.41212C48.4242 4.96441 47.9765 5.41212 47.4242 5.41212H1C0.447717 5.41212 0 4.9644 0 4.41212V0.999999ZM1.57166e-05 11.8243C1.57166e-05 11.272 0.447731 10.8243 1.00002 10.8243H33.5888C34.141 10.8243 34.5888 11.272 34.5888 11.8243V15.2364C34.5888 15.7887 34.141 16.2364 33.5888 16.2364H1.00001C0.44773 16.2364 1.57166e-05 15.7887 1.57166e-05 15.2364V11.8243ZM1.00002 21.6485C0.447731 21.6485 1.57166e-05 22.0962 1.57166e-05 22.6485V26.0607C1.57166e-05 26.6129 0.447731 27.0607 1.00002 27.0607H19.7533C20.3055 27.0607 20.7533 26.6129 20.7533 26.0607V22.6485C20.7533 22.0962 20.3055 21.6485 19.7533 21.6485H1.00002Z" fill="black"/>
<path d="M39.4773 19.0909H40.1761V18.1406C41.9659 18.017 42.9716 16.9602 42.9716 15.6307C42.9716 13.9943 41.4205 13.4659 40.517 13.2273L40.1761 13.1335V10.1037C41.0795 10.1932 41.7358 10.679 41.8295 11.4545H42.8523C42.8097 10.2102 41.7188 9.2642 40.1761 9.16193V8.18182H39.4773V9.17472C38.0156 9.32386 36.9205 10.2528 36.9205 11.5909C36.9205 12.767 37.7727 13.4659 39.1364 13.858L39.4773 13.956V17.1818C38.5824 17.0881 37.8494 16.6278 37.7727 15.75H36.6818C36.7798 17.0923 37.8026 18.0298 39.4773 18.1406V19.0909ZM40.1761 17.1818V14.1562L40.2102 14.1648C41.1307 14.4205 41.9489 14.7443 41.9489 15.6136C41.9489 16.4702 41.2074 17.0668 40.1761 17.1818ZM39.4773 12.946C38.8295 12.7628 37.9432 12.4048 37.9432 11.5398C37.9432 10.8026 38.5398 10.2401 39.4773 10.1165V12.946Z" fill="black"/>
</svg>
